<mxfile host="app.diagrams.net" modified="2023-06-06T14:15:28.519Z" agent="Mozilla/5.0 (Windows NT 10.0; Win64; x64) AppleWebKit/537.36 (KHTML, like Gecko) Chrome/114.0.0.0 Safari/537.36" etag="gzdYxYur-zaSW-k-3saO" version="21.3.7" type="device">
  <diagram name="Page-1" id="Clarvk5lNP2C_5TVQfPr">
    <mxGraphModel dx="1436" dy="792" grid="1" gridSize="10" guides="1" tooltips="1" connect="1" arrows="1" fold="1" page="1" pageScale="1" pageWidth="1169" pageHeight="1654" math="0" shadow="0">
      <root>
        <mxCell id="0" />
        <mxCell id="1" parent="0" />
        <mxCell id="oEikZvoXRe6qfsGwLAl4-1" value="Enemy" style="shape=umlLifeline;perimeter=lifelinePerimeter;whiteSpace=wrap;html=1;container=1;dropTarget=0;collapsible=0;recursiveResize=0;outlineConnect=0;portConstraint=eastwest;newEdgeStyle={&quot;edgeStyle&quot;:&quot;elbowEdgeStyle&quot;,&quot;elbow&quot;:&quot;vertical&quot;,&quot;curved&quot;:0,&quot;rounded&quot;:0};" vertex="1" parent="1">
          <mxGeometry x="150" y="140" width="100" height="1100" as="geometry" />
        </mxCell>
        <mxCell id="oEikZvoXRe6qfsGwLAl4-8" value="" style="html=1;points=[];perimeter=orthogonalPerimeter;outlineConnect=0;targetShapes=umlLifeline;portConstraint=eastwest;newEdgeStyle={&quot;edgeStyle&quot;:&quot;elbowEdgeStyle&quot;,&quot;elbow&quot;:&quot;vertical&quot;,&quot;curved&quot;:0,&quot;rounded&quot;:0};" vertex="1" parent="oEikZvoXRe6qfsGwLAl4-1">
          <mxGeometry x="45" y="50" width="10" height="950" as="geometry" />
        </mxCell>
        <mxCell id="oEikZvoXRe6qfsGwLAl4-22" value="" style="html=1;points=[];perimeter=orthogonalPerimeter;outlineConnect=0;targetShapes=umlLifeline;portConstraint=eastwest;newEdgeStyle={&quot;edgeStyle&quot;:&quot;elbowEdgeStyle&quot;,&quot;elbow&quot;:&quot;vertical&quot;,&quot;curved&quot;:0,&quot;rounded&quot;:0};" vertex="1" parent="oEikZvoXRe6qfsGwLAl4-1">
          <mxGeometry x="45" y="120" width="10" height="120" as="geometry" />
        </mxCell>
        <mxCell id="oEikZvoXRe6qfsGwLAl4-23" value="SeePlayer()" style="html=1;align=left;spacingLeft=2;endArrow=block;rounded=0;edgeStyle=orthogonalEdgeStyle;curved=0;rounded=0;" edge="1" target="oEikZvoXRe6qfsGwLAl4-22" parent="oEikZvoXRe6qfsGwLAl4-1">
          <mxGeometry relative="1" as="geometry">
            <mxPoint x="50" y="100" as="sourcePoint" />
            <Array as="points">
              <mxPoint x="80" y="130" />
            </Array>
          </mxGeometry>
        </mxCell>
        <mxCell id="oEikZvoXRe6qfsGwLAl4-30" value="" style="html=1;points=[];perimeter=orthogonalPerimeter;outlineConnect=0;targetShapes=umlLifeline;portConstraint=eastwest;newEdgeStyle={&quot;edgeStyle&quot;:&quot;elbowEdgeStyle&quot;,&quot;elbow&quot;:&quot;vertical&quot;,&quot;curved&quot;:0,&quot;rounded&quot;:0};" vertex="1" parent="oEikZvoXRe6qfsGwLAl4-1">
          <mxGeometry x="45" y="420" width="10" height="200" as="geometry" />
        </mxCell>
        <mxCell id="oEikZvoXRe6qfsGwLAl4-31" value="IsIntoWall()" style="html=1;align=left;spacingLeft=2;endArrow=block;rounded=0;edgeStyle=orthogonalEdgeStyle;curved=0;rounded=0;" edge="1" target="oEikZvoXRe6qfsGwLAl4-30" parent="oEikZvoXRe6qfsGwLAl4-1">
          <mxGeometry x="0.1758" relative="1" as="geometry">
            <mxPoint x="50" y="400" as="sourcePoint" />
            <Array as="points">
              <mxPoint x="80" y="430" />
            </Array>
            <mxPoint as="offset" />
          </mxGeometry>
        </mxCell>
        <mxCell id="oEikZvoXRe6qfsGwLAl4-2" value="Player" style="shape=umlLifeline;perimeter=lifelinePerimeter;whiteSpace=wrap;html=1;container=1;dropTarget=0;collapsible=0;recursiveResize=0;outlineConnect=0;portConstraint=eastwest;newEdgeStyle={&quot;edgeStyle&quot;:&quot;elbowEdgeStyle&quot;,&quot;elbow&quot;:&quot;vertical&quot;,&quot;curved&quot;:0,&quot;rounded&quot;:0};" vertex="1" parent="1">
          <mxGeometry x="320" y="140" width="100" height="1100" as="geometry" />
        </mxCell>
        <mxCell id="oEikZvoXRe6qfsGwLAl4-19" value="" style="html=1;points=[];perimeter=orthogonalPerimeter;outlineConnect=0;targetShapes=umlLifeline;portConstraint=eastwest;newEdgeStyle={&quot;edgeStyle&quot;:&quot;elbowEdgeStyle&quot;,&quot;elbow&quot;:&quot;vertical&quot;,&quot;curved&quot;:0,&quot;rounded&quot;:0};" vertex="1" parent="oEikZvoXRe6qfsGwLAl4-2">
          <mxGeometry x="45" y="160" width="10" height="80" as="geometry" />
        </mxCell>
        <mxCell id="oEikZvoXRe6qfsGwLAl4-3" value="Game" style="shape=umlLifeline;perimeter=lifelinePerimeter;whiteSpace=wrap;html=1;container=1;dropTarget=0;collapsible=0;recursiveResize=0;outlineConnect=0;portConstraint=eastwest;newEdgeStyle={&quot;edgeStyle&quot;:&quot;elbowEdgeStyle&quot;,&quot;elbow&quot;:&quot;vertical&quot;,&quot;curved&quot;:0,&quot;rounded&quot;:0};" vertex="1" parent="1">
          <mxGeometry x="480" y="140" width="100" height="1100" as="geometry" />
        </mxCell>
        <mxCell id="oEikZvoXRe6qfsGwLAl4-24" value="" style="html=1;points=[];perimeter=orthogonalPerimeter;outlineConnect=0;targetShapes=umlLifeline;portConstraint=eastwest;newEdgeStyle={&quot;edgeStyle&quot;:&quot;elbowEdgeStyle&quot;,&quot;elbow&quot;:&quot;vertical&quot;,&quot;curved&quot;:0,&quot;rounded&quot;:0};" vertex="1" parent="oEikZvoXRe6qfsGwLAl4-3">
          <mxGeometry x="45" y="280" width="10" height="80" as="geometry" />
        </mxCell>
        <mxCell id="oEikZvoXRe6qfsGwLAl4-27" value="" style="html=1;points=[];perimeter=orthogonalPerimeter;outlineConnect=0;targetShapes=umlLifeline;portConstraint=eastwest;newEdgeStyle={&quot;edgeStyle&quot;:&quot;elbowEdgeStyle&quot;,&quot;elbow&quot;:&quot;vertical&quot;,&quot;curved&quot;:0,&quot;rounded&quot;:0};" vertex="1" parent="oEikZvoXRe6qfsGwLAl4-3">
          <mxGeometry x="45" y="470" width="10" height="150" as="geometry" />
        </mxCell>
        <mxCell id="oEikZvoXRe6qfsGwLAl4-5" value="TileManager" style="shape=umlLifeline;perimeter=lifelinePerimeter;whiteSpace=wrap;html=1;container=1;dropTarget=0;collapsible=0;recursiveResize=0;outlineConnect=0;portConstraint=eastwest;newEdgeStyle={&quot;edgeStyle&quot;:&quot;elbowEdgeStyle&quot;,&quot;elbow&quot;:&quot;vertical&quot;,&quot;curved&quot;:0,&quot;rounded&quot;:0};" vertex="1" parent="1">
          <mxGeometry x="630" y="140" width="100" height="1100" as="geometry" />
        </mxCell>
        <mxCell id="oEikZvoXRe6qfsGwLAl4-32" value="" style="html=1;points=[];perimeter=orthogonalPerimeter;outlineConnect=0;targetShapes=umlLifeline;portConstraint=eastwest;newEdgeStyle={&quot;edgeStyle&quot;:&quot;elbowEdgeStyle&quot;,&quot;elbow&quot;:&quot;vertical&quot;,&quot;curved&quot;:0,&quot;rounded&quot;:0};" vertex="1" parent="oEikZvoXRe6qfsGwLAl4-5">
          <mxGeometry x="45" y="510" width="10" height="80" as="geometry" />
        </mxCell>
        <mxCell id="oEikZvoXRe6qfsGwLAl4-13" value="Move()" style="html=1;verticalAlign=bottom;startArrow=oval;startFill=1;endArrow=block;startSize=8;edgeStyle=elbowEdgeStyle;elbow=vertical;curved=0;rounded=0;" edge="1" parent="1">
          <mxGeometry width="60" relative="1" as="geometry">
            <mxPoint x="120" y="210" as="sourcePoint" />
            <mxPoint x="200" y="210" as="targetPoint" />
          </mxGeometry>
        </mxCell>
        <mxCell id="oEikZvoXRe6qfsGwLAl4-20" value="Coordinates" style="html=1;verticalAlign=bottom;startArrow=oval;endArrow=block;startSize=8;edgeStyle=elbowEdgeStyle;elbow=vertical;curved=0;rounded=0;" edge="1" target="oEikZvoXRe6qfsGwLAl4-19" parent="1">
          <mxGeometry relative="1" as="geometry">
            <mxPoint x="205" y="305" as="sourcePoint" />
          </mxGeometry>
        </mxCell>
        <mxCell id="oEikZvoXRe6qfsGwLAl4-21" value="Point2D" style="html=1;verticalAlign=bottom;endArrow=open;dashed=1;endSize=8;edgeStyle=elbowEdgeStyle;elbow=vertical;curved=0;rounded=0;" edge="1" parent="1" target="oEikZvoXRe6qfsGwLAl4-1">
          <mxGeometry relative="1" as="geometry">
            <mxPoint x="370" y="370" as="sourcePoint" />
            <mxPoint x="290" y="370" as="targetPoint" />
          </mxGeometry>
        </mxCell>
        <mxCell id="oEikZvoXRe6qfsGwLAl4-25" value="AllEnemies" style="html=1;verticalAlign=bottom;startArrow=oval;endArrow=block;startSize=8;edgeStyle=elbowEdgeStyle;elbow=vertical;curved=0;rounded=0;" edge="1" target="oEikZvoXRe6qfsGwLAl4-24" parent="1" source="oEikZvoXRe6qfsGwLAl4-8">
          <mxGeometry x="0.5938" relative="1" as="geometry">
            <mxPoint x="465" y="420" as="sourcePoint" />
            <Array as="points">
              <mxPoint x="270" y="430" />
            </Array>
            <mxPoint as="offset" />
          </mxGeometry>
        </mxCell>
        <mxCell id="oEikZvoXRe6qfsGwLAl4-26" value="List&amp;lt;Enemies&amp;gt;" style="html=1;verticalAlign=bottom;endArrow=open;dashed=1;endSize=8;edgeStyle=elbowEdgeStyle;elbow=vertical;curved=0;rounded=0;" edge="1" parent="1" target="oEikZvoXRe6qfsGwLAl4-1">
          <mxGeometry x="-0.6964" relative="1" as="geometry">
            <mxPoint x="530" y="490" as="sourcePoint" />
            <mxPoint x="450" y="490" as="targetPoint" />
            <mxPoint as="offset" />
          </mxGeometry>
        </mxCell>
        <mxCell id="oEikZvoXRe6qfsGwLAl4-28" value="TileManager.MaptTile" style="html=1;verticalAlign=bottom;startArrow=oval;endArrow=block;startSize=8;edgeStyle=elbowEdgeStyle;elbow=vertical;curved=0;rounded=0;" edge="1" target="oEikZvoXRe6qfsGwLAl4-27" parent="1" source="oEikZvoXRe6qfsGwLAl4-8">
          <mxGeometry x="0.5938" relative="1" as="geometry">
            <mxPoint x="625" y="530" as="sourcePoint" />
            <Array as="points">
              <mxPoint x="490" y="620" />
              <mxPoint x="470" y="540" />
            </Array>
            <mxPoint as="offset" />
          </mxGeometry>
        </mxCell>
        <mxCell id="oEikZvoXRe6qfsGwLAl4-29" value="int" style="html=1;verticalAlign=bottom;endArrow=open;dashed=1;endSize=8;edgeStyle=elbowEdgeStyle;elbow=vertical;curved=0;rounded=0;" edge="1" parent="1" source="oEikZvoXRe6qfsGwLAl4-27" target="oEikZvoXRe6qfsGwLAl4-1">
          <mxGeometry x="-0.7131" relative="1" as="geometry">
            <mxPoint x="690" y="600" as="sourcePoint" />
            <mxPoint x="610" y="600" as="targetPoint" />
            <Array as="points">
              <mxPoint x="390" y="750" />
              <mxPoint x="480" y="680" />
              <mxPoint x="600" y="590" />
            </Array>
            <mxPoint as="offset" />
          </mxGeometry>
        </mxCell>
        <mxCell id="oEikZvoXRe6qfsGwLAl4-33" value="MapTile" style="html=1;verticalAlign=bottom;endArrow=block;edgeStyle=elbowEdgeStyle;elbow=vertical;curved=0;rounded=0;" edge="1" target="oEikZvoXRe6qfsGwLAl4-32" parent="1">
          <mxGeometry x="0.5243" relative="1" as="geometry">
            <mxPoint x="530" y="660" as="sourcePoint" />
            <Array as="points">
              <mxPoint x="640" y="660" />
            </Array>
            <mxPoint as="offset" />
          </mxGeometry>
        </mxCell>
        <mxCell id="oEikZvoXRe6qfsGwLAl4-34" value="int" style="html=1;verticalAlign=bottom;endArrow=open;dashed=1;endSize=8;edgeStyle=elbowEdgeStyle;elbow=vertical;curved=0;rounded=0;" edge="1" source="oEikZvoXRe6qfsGwLAl4-32" parent="1" target="oEikZvoXRe6qfsGwLAl4-27">
          <mxGeometry x="-0.5161" relative="1" as="geometry">
            <mxPoint x="770" y="720" as="targetPoint" />
            <Array as="points">
              <mxPoint x="660" y="720" />
            </Array>
            <mxPoint as="offset" />
          </mxGeometry>
        </mxCell>
        <mxCell id="oEikZvoXRe6qfsGwLAl4-35" value="IF" style="shape=umlFrame;whiteSpace=wrap;html=1;pointerEvents=0;" vertex="1" parent="1">
          <mxGeometry x="75" y="510" width="705" height="270" as="geometry" />
        </mxCell>
        <mxCell id="oEikZvoXRe6qfsGwLAl4-36" value="This entire part is in the condition" style="text;html=1;strokeColor=none;fillColor=none;align=center;verticalAlign=middle;whiteSpace=wrap;rounded=0;" vertex="1" parent="1">
          <mxGeometry x="75" y="540" width="115" height="30" as="geometry" />
        </mxCell>
        <mxCell id="oEikZvoXRe6qfsGwLAl4-39" value="" style="html=1;points=[];perimeter=orthogonalPerimeter;outlineConnect=0;targetShapes=umlLifeline;portConstraint=eastwest;newEdgeStyle={&quot;edgeStyle&quot;:&quot;elbowEdgeStyle&quot;,&quot;elbow&quot;:&quot;vertical&quot;,&quot;curved&quot;:0,&quot;rounded&quot;:0};" vertex="1" parent="1">
          <mxGeometry x="195" y="850" width="10" height="200" as="geometry" />
        </mxCell>
        <mxCell id="oEikZvoXRe6qfsGwLAl4-40" value="IsIntoWall()" style="html=1;align=left;spacingLeft=2;endArrow=block;rounded=0;edgeStyle=orthogonalEdgeStyle;curved=0;rounded=0;" edge="1" parent="1" target="oEikZvoXRe6qfsGwLAl4-39">
          <mxGeometry x="0.1758" relative="1" as="geometry">
            <mxPoint x="200" y="830" as="sourcePoint" />
            <Array as="points">
              <mxPoint x="230" y="860" />
            </Array>
            <mxPoint as="offset" />
          </mxGeometry>
        </mxCell>
        <mxCell id="oEikZvoXRe6qfsGwLAl4-41" value="" style="html=1;points=[];perimeter=orthogonalPerimeter;outlineConnect=0;targetShapes=umlLifeline;portConstraint=eastwest;newEdgeStyle={&quot;edgeStyle&quot;:&quot;elbowEdgeStyle&quot;,&quot;elbow&quot;:&quot;vertical&quot;,&quot;curved&quot;:0,&quot;rounded&quot;:0};" vertex="1" parent="1">
          <mxGeometry x="525" y="900" width="10" height="150" as="geometry" />
        </mxCell>
        <mxCell id="oEikZvoXRe6qfsGwLAl4-42" value="" style="html=1;points=[];perimeter=orthogonalPerimeter;outlineConnect=0;targetShapes=umlLifeline;portConstraint=eastwest;newEdgeStyle={&quot;edgeStyle&quot;:&quot;elbowEdgeStyle&quot;,&quot;elbow&quot;:&quot;vertical&quot;,&quot;curved&quot;:0,&quot;rounded&quot;:0};" vertex="1" parent="1">
          <mxGeometry x="675" y="940" width="10" height="80" as="geometry" />
        </mxCell>
        <mxCell id="oEikZvoXRe6qfsGwLAl4-43" value="TileManager.MaptTile" style="html=1;verticalAlign=bottom;startArrow=oval;endArrow=block;startSize=8;edgeStyle=elbowEdgeStyle;elbow=vertical;curved=0;rounded=0;" edge="1" parent="1" target="oEikZvoXRe6qfsGwLAl4-41">
          <mxGeometry x="0.5938" relative="1" as="geometry">
            <mxPoint x="205" y="910" as="sourcePoint" />
            <Array as="points">
              <mxPoint x="490" y="910" />
              <mxPoint x="470" y="830" />
            </Array>
            <mxPoint as="offset" />
          </mxGeometry>
        </mxCell>
        <mxCell id="oEikZvoXRe6qfsGwLAl4-44" value="int" style="html=1;verticalAlign=bottom;endArrow=open;dashed=1;endSize=8;edgeStyle=elbowEdgeStyle;elbow=vertical;curved=0;rounded=0;" edge="1" parent="1" source="oEikZvoXRe6qfsGwLAl4-41">
          <mxGeometry x="-0.7131" relative="1" as="geometry">
            <mxPoint x="690" y="890" as="sourcePoint" />
            <mxPoint x="200" y="1040" as="targetPoint" />
            <Array as="points">
              <mxPoint x="390" y="1040" />
              <mxPoint x="480" y="970" />
              <mxPoint x="600" y="880" />
            </Array>
            <mxPoint as="offset" />
          </mxGeometry>
        </mxCell>
        <mxCell id="oEikZvoXRe6qfsGwLAl4-45" value="MapTile" style="html=1;verticalAlign=bottom;endArrow=block;edgeStyle=elbowEdgeStyle;elbow=vertical;curved=0;rounded=0;" edge="1" parent="1" target="oEikZvoXRe6qfsGwLAl4-42">
          <mxGeometry x="0.5243" relative="1" as="geometry">
            <mxPoint x="530" y="950" as="sourcePoint" />
            <Array as="points">
              <mxPoint x="640" y="950" />
            </Array>
            <mxPoint as="offset" />
          </mxGeometry>
        </mxCell>
        <mxCell id="oEikZvoXRe6qfsGwLAl4-46" value="int" style="html=1;verticalAlign=bottom;endArrow=open;dashed=1;endSize=8;edgeStyle=elbowEdgeStyle;elbow=vertical;curved=0;rounded=0;" edge="1" parent="1" source="oEikZvoXRe6qfsGwLAl4-42" target="oEikZvoXRe6qfsGwLAl4-41">
          <mxGeometry x="-0.5161" relative="1" as="geometry">
            <mxPoint x="770" y="1010" as="targetPoint" />
            <Array as="points">
              <mxPoint x="660" y="1010" />
            </Array>
            <mxPoint as="offset" />
          </mxGeometry>
        </mxCell>
        <mxCell id="oEikZvoXRe6qfsGwLAl4-47" value="ELSE IF" style="shape=umlFrame;whiteSpace=wrap;html=1;pointerEvents=0;" vertex="1" parent="1">
          <mxGeometry x="75" y="780" width="705" height="290" as="geometry" />
        </mxCell>
        <mxCell id="oEikZvoXRe6qfsGwLAl4-48" value="This entire part is in the condition" style="text;html=1;strokeColor=none;fillColor=none;align=center;verticalAlign=middle;whiteSpace=wrap;rounded=0;" vertex="1" parent="1">
          <mxGeometry x="75" y="830" width="115" height="30" as="geometry" />
        </mxCell>
        <mxCell id="oEikZvoXRe6qfsGwLAl4-49" value="void" style="html=1;verticalAlign=bottom;endArrow=open;dashed=1;endSize=8;edgeStyle=elbowEdgeStyle;elbow=vertical;curved=0;rounded=0;" edge="1" parent="1">
          <mxGeometry relative="1" as="geometry">
            <mxPoint x="200" y="1130" as="sourcePoint" />
            <mxPoint x="80" y="1130" as="targetPoint" />
          </mxGeometry>
        </mxCell>
        <mxCell id="oEikZvoXRe6qfsGwLAl4-51" value="&lt;h1&gt;Calling Move()&lt;/h1&gt;" style="text;html=1;strokeColor=none;fillColor=none;spacing=5;spacingTop=-20;whiteSpace=wrap;overflow=hidden;rounded=0;" vertex="1" parent="1">
          <mxGeometry x="140" y="90" width="190" height="40" as="geometry" />
        </mxCell>
      </root>
    </mxGraphModel>
  </diagram>
</mxfile>
